<?xml version="1.0" standalone="no"?>
<!DOCTYPE svg PUBLIC "-//W3C//DTD SVG 20010904//EN"
 "http://www.w3.org/TR/2001/REC-SVG-20010904/DTD/svg10.dtd">
<svg version="1.0" xmlns="http://www.w3.org/2000/svg"
 width="1080.000000pt" height="920.000000pt" viewBox="0 0 1080.000000 920.000000"
 preserveAspectRatio="xMidYMid meet">

<g transform="translate(0.000000,920.000000) scale(0.100000,-0.100000)"
fill="#000000" stroke="none">
<path d="M6211 8541 c-6 -10 -9 -20 -7 -22 7 -8 65 -306 71 -369 4 -36 12 -68
18 -72 7 -4 37 -8 68 -8 31 0 70 -5 87 -11 43 -15 125 -116 117 -143 -3 -12
-9 -52 -12 -91 -2 -38 -14 -94 -24 -124 l-20 -55 20 -27 c42 -57 17 -100 -88
-154 -25 -12 -63 -36 -83 -53 -59 -47 -92 -57 -145 -45 -63 15 -103 -5 -137
-66 -13 -25 -36 -57 -50 -70 -14 -14 -26 -34 -26 -46 0 -12 -22 -55 -48 -96
-93 -142 -100 -159 -127 -294 -33 -169 -35 -172 -90 -186 -28 -7 -50 -20 -57
-33 -10 -19 -13 -91 -8 -192 2 -22 -5 -64 -15 -93 -16 -48 -19 -52 -62 -62
-44 -12 -163 -90 -163 -109 0 -5 5 -21 12 -35 9 -21 8 -32 -7 -63 -9 -20 -23
-86 -30 -146 l-13 -109 -51 -47 c-78 -72 -69 -115 32 -144 52 -15 84 -40 106
-83 21 -41 50 -189 65 -334 8 -81 24 -171 34 -201 62 -175 337 -510 444 -539
124 -33 293 57 429 229 105 132 179 293 239 519 29 114 55 179 94 243 13 19
33 61 46 93 21 51 27 58 50 55 18 -2 32 -16 52 -53 15 -27 29 -54 31 -60 2 -6
83 -10 213 -11 180 -1 219 -4 282 -22 86 -24 139 -56 179 -108 25 -34 28 -45
28 -118 0 -71 -4 -89 -34 -151 -19 -38 -61 -109 -94 -157 -76 -112 -311 -358
-364 -381 -21 -9 -103 -30 -183 -47 -173 -37 -210 -48 -210 -62 0 -11 39 -66
72 -102 40 -44 40 -44 -224 -232 -650 -463 -1556 -947 -2350 -1255 -553 -214
-953 -331 -1338 -390 -196 -31 -485 -33 -575 -5 -115 36 -169 76 -199 148 -21
50 -20 103 4 172 63 183 254 416 552 673 111 96 126 114 146 186 26 96 26 104
-2 132 -15 15 -33 25 -40 22 -7 -3 -69 -47 -137 -98 -538 -402 -896 -760
-1024 -1024 -30 -60 -59 -137 -65 -170 -95 -476 672 -515 1965 -98 277 90 684
244 955 363 52 23 124 54 160 70 234 100 801 377 1005 490 61 34 164 91 230
127 272 151 555 324 864 530 117 79 221 143 231 143 10 0 41 -30 72 -68 31
-38 61 -67 72 -67 14 0 34 41 93 185 41 102 82 193 91 204 10 10 82 73 162
140 174 145 421 389 510 504 80 102 162 236 192 311 16 41 23 83 26 156 3 98
3 101 -28 147 -68 102 -168 147 -379 169 -200 22 -619 -23 -904 -97 -89 -23
-116 -17 -149 33 -16 23 -45 52 -66 64 -31 19 -146 110 -162 129 -3 4 -31 26
-63 49 -34 26 -75 70 -102 111 -24 37 -83 108 -130 157 -47 50 -85 99 -85 108
0 9 18 38 41 63 23 26 50 64 60 84 11 21 28 42 39 48 41 22 114 22 214 1 55
-12 115 -21 135 -21 55 1 381 86 410 108 40 30 38 54 -12 110 -25 28 -48 65
-52 82 -4 17 -24 50 -46 72 -30 32 -39 49 -39 77 0 20 -9 65 -21 101 -57 181
-58 359 -4 459 l27 49 -23 40 c-22 37 -23 44 -11 88 11 40 10 50 -3 70 -9 14
-15 46 -15 81 0 61 -19 103 -46 103 -30 0 -54 38 -54 88 0 26 -10 91 -22 145
l-23 99 -65 42 c-36 24 -78 51 -93 60 -31 19 -53 61 -62 120 -4 21 -17 49 -30
62 -22 22 -31 24 -134 24 -97 0 -111 -2 -120 -19z"/>
<path d="M8553 5120 c-50 -21 -78 -110 -48 -156 20 -31 79 -57 108 -48 12 4
43 22 68 40 51 37 74 42 83 18 9 -22 0 -32 -37 -42 -25 -6 -33 -14 -35 -35 -3
-21 3 -29 23 -39 78 -35 164 99 107 168 -43 54 -94 57 -157 8 -51 -38 -90 -43
-90 -10 0 14 10 22 31 28 31 8 48 35 35 57 -10 15 -62 22 -88 11z"/>
<path d="M8443 4933 c-3 -10 -17 -30 -30 -45 -14 -14 -23 -34 -21 -44 4 -23
236 -184 265 -184 16 0 25 8 29 27 8 30 9 29 -111 111 l-77 54 6 39 c5 31 3
40 -13 49 -28 14 -41 13 -48 -7z"/>
<path d="M4750 4852 c-160 -74 -431 -212 -505 -255 -84 -49 -90 -55 -93 -88
-4 -44 21 -69 76 -76 37 -5 63 6 289 122 136 70 250 129 253 131 2 3 -4 20
-14 39 -19 34 -19 34 6 67 27 36 44 78 31 77 -4 0 -24 -8 -43 -17z"/>
<path d="M8286 4729 c-43 -37 -55 -83 -32 -128 17 -33 118 -121 167 -147 90
-46 192 80 133 164 -32 46 -87 14 -67 -38 9 -23 8 -32 -3 -40 -17 -15 -44 -9
-58 12 -8 13 -4 25 22 57 43 54 41 73 -14 116 -60 45 -100 47 -148 4z m89 -79
c0 -20 -5 -25 -25 -25 -28 0 -41 32 -18 46 23 15 43 5 43 -21z"/>
<path d="M8070 4620 c-14 -26 -3 -45 57 -99 26 -23 87 -82 135 -129 82 -81 88
-85 113 -74 14 6 25 20 25 30 0 10 -62 79 -138 155 -142 140 -170 158 -192
117z"/>
<path d="M7981 4534 c-29 -21 -27 -30 16 -78 77 -87 244 -256 252 -256 17 0
42 32 39 50 -3 18 -252 286 -274 294 -6 2 -21 -2 -33 -10z"/>
<path d="M7879 4321 c-52 -51 -52 -83 0 -148 117 -145 175 -168 246 -98 39 40
46 84 19 123 -30 43 -79 19 -68 -35 8 -41 -18 -63 -46 -38 -28 25 -26 34 22
82 l41 42 -28 41 c-38 55 -62 70 -108 70 -32 0 -46 -7 -78 -39z m105 -57 c7
-19 -10 -44 -30 -44 -16 0 -37 37 -29 50 10 16 52 11 59 -6z"/>
<path d="M7668 4220 c-48 -26 -68 -56 -68 -101 0 -77 76 -127 177 -115 61 7
93 -5 93 -34 0 -24 -31 -42 -51 -29 -24 15 -58 10 -69 -11 -9 -17 -6 -25 19
-50 33 -33 56 -37 105 -16 96 40 100 168 8 212 -26 12 -49 14 -96 9 -66 -7
-91 -2 -100 21 -14 37 22 56 64 34 13 -7 24 -5 41 9 28 22 21 44 -23 71 -40
24 -53 24 -100 0z"/>
<path d="M7374 3990 c-11 -4 -34 -24 -52 -44 -46 -53 -43 -80 21 -158 28 -36
63 -83 77 -106 51 -83 117 -94 188 -29 31 29 30 98 -3 152 -14 22 -25 47 -25
56 0 22 -32 49 -57 49 -13 0 -34 -16 -53 -40 -35 -44 -58 -50 -83 -22 -35 39
-11 76 42 66 61 -13 82 34 29 66 -35 21 -51 23 -84 10z m167 -231 c25 -35 18
-62 -18 -67 -36 -5 -64 55 -38 82 23 22 31 20 56 -15z"/>
<path d="M7066 3696 c-40 -37 -46 -69 -22 -114 21 -40 57 -55 133 -56 58 -1
68 -4 71 -20 5 -26 -15 -35 -48 -23 -53 20 -83 -36 -38 -67 44 -31 125 -12
160 39 13 17 9 74 -7 104 -19 37 -60 53 -130 49 -46 -2 -60 1 -68 14 -19 29 5
44 42 28 25 -10 34 -10 46 0 38 32 -2 80 -67 80 -28 0 -45 -8 -72 -34z"/>
<path d="M6930 3601 c-25 -15 -46 -35 -48 -43 -2 -9 34 -73 80 -142 85 -129
108 -147 138 -111 11 13 7 24 -19 65 -104 165 -95 146 -81 190 11 32 11 42 0
55 -16 19 -16 19 -70 -14z"/>
<path d="M6744 3486 c-40 -18 -74 -62 -74 -95 0 -31 91 -183 127 -211 16 -12
41 -20 65 -20 78 0 137 97 95 155 -10 13 -21 16 -40 11 -22 -5 -27 -12 -27
-39 0 -31 -14 -57 -31 -57 -14 0 -39 32 -39 50 0 11 18 28 45 44 29 18 45 34
45 47 0 21 -38 87 -62 107 -24 19 -70 23 -104 8z m57 -76 c26 -14 24 -39 -3
-49 -27 -10 -48 3 -48 29 0 15 9 24 28 29 2 1 12 -4 23 -9z"/>
<path d="M6578 3379 c-22 -12 -23 -41 -3 -94 8 -22 14 -46 15 -52 0 -24 -27
-13 -55 22 -37 47 -59 59 -85 45 -11 -6 -20 -19 -20 -28 0 -10 45 -62 101
-117 122 -122 125 -126 103 -165 -17 -28 -17 -30 1 -50 23 -26 37 -25 64 4 41
43 38 80 -19 258 -62 193 -65 199 -102 177z"/>
<path d="M6339 3234 c-14 -17 -3 -45 68 -164 37 -61 42 -95 16 -104 -21 -8
-25 -3 -99 122 -49 81 -59 92 -77 86 -51 -15 -47 -31 46 -183 57 -93 84 -116
123 -107 31 8 134 75 134 88 0 9 -84 157 -137 241 -25 40 -52 47 -74 21z"/>
<path d="M6030 3123 c-8 -4 -32 -17 -52 -30 -45 -27 -47 -48 -15 -101 13 -20
52 -90 87 -154 37 -70 69 -118 78 -118 19 0 98 46 123 71 47 47 46 110 -2 156
-35 33 -59 75 -59 101 0 11 -13 34 -29 51 -24 26 -36 31 -73 30 -23 0 -50 -3
-58 -6z m77 -92 c8 -17 9 -30 2 -43 -14 -25 -40 -19 -58 14 -13 22 -13 29 -1
42 18 22 42 16 57 -13z m89 -146 c16 -24 16 -27 -1 -45 -22 -24 -33 -25 -57
-3 -18 16 -24 53 -11 66 15 16 53 6 69 -18z"/>
<path d="M5683 2865 c-32 -32 -35 -39 -29 -76 8 -49 69 -173 101 -205 45 -45
139 -24 171 37 19 37 12 94 -13 103 -28 11 -53 -4 -53 -30 0 -33 -17 -64 -35
-64 -16 0 -35 30 -35 54 0 9 22 27 50 41 54 27 59 39 34 88 -31 62 -63 87
-112 87 -37 0 -50 -6 -79 -35z m98 -57 c9 -18 8 -24 -6 -34 -34 -25 -63 14
-33 44 17 17 26 15 39 -10z"/>
<path d="M5482 2858 c-6 -6 -12 -17 -12 -22 -1 -20 175 -355 188 -361 20 -7
52 13 52 33 0 9 -39 94 -87 187 -89 173 -109 195 -141 163z"/>
<path d="M5335 2690 c-32 -16 -63 -36 -67 -44 -10 -18 163 -370 185 -379 8 -3
24 1 36 9 20 14 20 16 4 56 -14 36 -15 42 -2 46 8 3 29 20 48 39 29 29 32 37
26 69 -9 51 -83 191 -112 214 -34 26 -47 25 -118 -10z m120 -140 c29 -64 32
-77 20 -89 -21 -21 -38 -8 -73 57 -43 80 -42 117 1 110 12 -2 30 -29 52 -78z"/>
<path d="M5112 2678 c-17 -17 -15 -45 4 -56 23 -13 52 -3 59 20 12 37 -35 64
-63 36z"/>
<path d="M5163 2599 c-13 -5 -23 -15 -23 -23 0 -8 29 -76 65 -151 62 -130 66
-136 92 -133 20 2 29 9 31 25 4 25 -114 279 -132 286 -6 2 -21 1 -33 -4z"/>
<path d="M4976 2578 c-3 -7 -9 -28 -15 -47 -17 -52 -13 -70 15 -83 19 -9 38
-37 65 -93 21 -45 48 -91 59 -103 43 -46 142 -16 125 37 -7 22 -14 25 -52 21
-18 -1 -29 12 -58 69 -39 79 -42 97 -19 122 25 28 10 59 -30 59 -18 0 -41 7
-52 15 -24 18 -34 19 -38 3z"/>
<path d="M4822 2538 c-17 -17 -17 -17 27 -110 21 -46 55 -121 76 -168 44 -99
51 -110 75 -110 36 0 42 24 20 81 -20 51 -120 266 -138 299 -12 20 -44 24 -60
8z"/>
<path d="M4732 2408 c-18 -18 -16 -26 33 -138 46 -106 50 -140 14 -140 -15 0
-27 15 -45 58 -74 170 -76 173 -103 170 -19 -2 -27 -10 -29 -28 -3 -30 80
-226 110 -257 26 -28 70 -30 106 -4 15 10 39 21 53 24 15 4 30 14 33 23 5 14
-47 150 -102 264 -18 37 -49 49 -70 28z"/>
<path d="M4452 2348 c-8 -8 -12 -46 -12 -105 0 -51 -3 -93 -7 -93 -5 0 -35 30
-68 67 -55 59 -64 66 -88 59 -15 -3 -31 -14 -34 -22 -7 -20 126 -352 145 -359
19 -7 52 12 52 31 0 8 -7 31 -16 52 -9 20 -22 55 -30 77 l-15 40 36 -35 c31
-30 38 -33 62 -24 24 8 29 16 33 59 l6 50 23 -50 c12 -27 29 -65 37 -83 10
-26 19 -33 35 -30 47 7 46 29 -11 170 -76 190 -86 208 -113 208 -13 0 -28 -5
-35 -12z"/>
<path d="M4061 2146 c-13 -13 -35 -27 -49 -31 -45 -11 -92 -53 -92 -82 0 -47
24 -106 56 -137 17 -17 34 -41 38 -52 4 -12 15 -29 26 -39 17 -16 25 -16 65
-5 31 9 49 10 56 3 14 -14 -30 -41 -79 -49 -60 -9 -68 -17 -54 -50 11 -23 17
-26 50 -22 21 3 62 16 91 29 42 17 57 30 68 57 12 30 12 37 -4 70 l-18 37 -69
-2 -70 -1 38 36 c38 35 38 36 32 91 -20 167 -20 166 -41 169 -12 2 -31 -8 -44
-22z m7 -128 c15 -31 2 -68 -23 -68 -23 0 -48 46 -41 76 9 34 46 29 64 -8z"/>
<path d="M3510 2025 c-11 -13 -11 -22 3 -51 10 -19 17 -42 17 -52 0 -20 89
-283 101 -296 4 -5 19 -6 33 -2 19 5 26 13 26 30 0 23 -81 273 -96 298 -4 7
-10 28 -14 48 -4 28 -10 36 -31 38 -15 2 -31 -4 -39 -13z"/>
<path d="M3725 2010 c-27 -10 -54 -24 -58 -32 -10 -15 78 -281 100 -304 18
-17 24 -18 47 -1 18 13 17 19 -19 129 -40 121 -40 152 -3 146 17 -2 28 -21 56
-103 19 -55 40 -107 48 -116 19 -21 64 -13 64 12 0 25 -74 234 -94 264 -20 30
-65 32 -141 5z"/>
<path d="M3367 1953 c-2 -5 -10 -32 -18 -60 -12 -52 -12 -54 14 -80 15 -17 36
-62 52 -113 33 -105 46 -120 100 -120 46 0 65 13 65 46 0 25 -14 37 -43 39
-25 2 -32 12 -56 83 -25 73 -26 91 -7 98 19 7 28 32 21 55 -4 13 -16 19 -35
19 -19 0 -33 7 -40 20 -10 19 -45 28 -53 13z"/>
<path d="M3173 1840 c-59 -24 -66 -97 -23 -230 24 -76 27 -81 60 -103 31 -21
53 -21 96 -1 39 19 64 59 64 102 0 61 -58 70 -76 12 -8 -23 -19 -36 -32 -38
-18 -3 -24 8 -46 78 -14 45 -22 88 -19 96 8 21 41 17 55 -6 15 -24 50 -26 68
-5 16 19 -3 69 -34 90 -23 16 -79 19 -113 5z"/>
<path d="M2920 1773 c-27 -10 -59 -45 -65 -73 -10 -46 36 -221 66 -251 29 -29
109 -26 147 6 51 43 49 125 -3 125 -20 0 -29 -8 -41 -36 -12 -27 -20 -35 -37
-32 -17 2 -22 10 -22 32 0 26 5 30 48 41 67 17 71 23 57 88 -14 71 -48 107
-99 106 -20 0 -43 -3 -51 -6z m70 -103 c0 -20 -23 -32 -45 -24 -20 8 -19 41 2
53 21 11 43 -3 43 -29z"/>
<path d="M1790 1703 c-26 -24 -33 -42 -50 -131 -11 -56 -20 -127 -20 -158 0
-51 2 -56 33 -74 44 -27 125 -27 155 0 43 40 43 103 -1 108 -21 3 -29 -2 -38
-22 -14 -31 -34 -39 -60 -26 -23 13 -23 13 -3 114 23 119 32 138 63 134 21 -2
27 -9 29 -33 3 -27 25 -55 43 -55 18 0 39 34 39 63 0 89 -123 140 -190 80z"/>
<path d="M2665 1710 c-11 -5 -34 -9 -51 -9 -18 -1 -34 -7 -37 -15 -6 -16 38
-267 53 -303 11 -26 42 -30 60 -8 10 12 8 37 -10 130 -12 63 -19 119 -15 125
3 5 17 10 30 10 25 0 24 6 57 -175 13 -68 14 -70 44 -73 21 -2 33 2 37 13 7
17 -37 245 -53 275 -20 37 -69 50 -115 30z"/>
<path d="M2357 1663 c-30 -3 -50 -10 -54 -19 -5 -13 23 -269 33 -306 7 -22 59
-24 68 -3 3 8 -2 65 -11 126 -15 106 -15 113 1 125 20 14 42 9 50 -12 3 -7 10
-53 16 -101 18 -136 17 -133 49 -133 33 0 40 11 35 55 -22 168 -36 241 -51
257 -16 18 -28 19 -136 11z"/>
<path d="M2058 1620 l-30 -31 4 -115 c4 -94 8 -119 24 -141 26 -34 75 -48 120
-33 56 19 64 39 64 173 0 118 0 119 -29 148 -24 24 -38 29 -76 29 -39 0 -52
-5 -77 -30z m110 -130 c4 -98 -2 -122 -31 -118 -19 3 -23 12 -29 58 -7 51 -3
114 9 133 3 4 15 7 26 5 20 -3 22 -10 25 -78z"/>
</g>
</svg>
